<svg fill="#262626" height="800" width="800" xmlns="http://www.w3.org/2000/svg" viewBox="-47.33 -47.33 567.96 567.96" xml:space="preserve" stroke="#262626" transform="scale(-1 1)"><rect x="-47.33" y="-47.33" width="567.96" height="567.96" rx="283.98" fill="#fff" stroke="none" stroke-width="0"/><path d="M101.313 331.417c-14.104 0-25.577 11.474-25.577 25.578s11.474 25.577 25.577 25.577 25.578-11.474 25.578-25.577-11.474-25.578-25.578-25.578zm0 40.156c-8.038 0-14.577-6.539-14.577-14.577s6.539-14.578 14.577-14.578 14.578 6.54 14.578 14.578-6.539 14.577-14.578 14.577zM312.375 331.417c-14.104 0-25.577 11.474-25.577 25.578s11.474 25.577 25.577 25.577 25.578-11.474 25.578-25.577-11.474-25.578-25.578-25.578zm0 40.156c-8.038 0-14.577-6.539-14.577-14.577s6.539-14.578 14.577-14.578 14.578 6.54 14.578 14.578-6.54 14.577-14.578 14.577z"/><path d="M326.409 194.125c12.162 26.502 38.932 44.963 69.95 44.963 42.423 0 76.937-34.513 76.937-76.936a5.5 5.5 0 0 0-5.5-5.5h-21.663c-2.749-25.035-24.017-44.579-49.772-44.579s-47.023 19.545-49.772 44.579h-6.64v-.005a837.112 837.112 0 0 0-53.506.792l-34.314-59.437-9.247-42.673a5.5 5.5 0 0 0-5.375-4.335h-61.329a5.5 5.5 0 0 0-5.375 4.335l-9.247 42.673-49.84 86.33a834.597 834.597 0 0 0-51.09 15.262 18.475 18.475 0 0 0-10.823 9.479 18.535 18.535 0 0 0-.846 14.395c.039.122.08.241.124.357 2.709 7.573 9.953 12.358 17.638 12.358a18.47 18.47 0 0 0 5.864-.956c4.012-1.339 8.02-2.64 12.003-3.902l-25.383 43.968H25.397a5.5 5.5 0 0 0-5.5 5.5v31.04L2.189 325.181A5.5 5.5 0 0 0 0 329.573v27.421a5.5 5.5 0 0 0 5.5 5.5h30.755c2.804 33.445 30.902 59.809 65.058 59.809 34.157 0 62.255-26.364 65.059-59.809h80.944c2.804 33.445 30.902 59.809 65.058 59.809 34.157 0 62.255-26.364 65.059-59.809h30.752a5.5 5.5 0 0 0 5.5-5.5v-27.421a5.502 5.502 0 0 0-2.189-4.392l-17.708-13.349v-31.04a5.5 5.5 0 0 0-5.5-5.5H354.48l-46.748-80.975a776.732 776.732 0 0 1 18.677-.192zm69.949 33.963c-34.504 0-62.903-26.644-65.708-60.436h131.417c-2.804 33.792-31.204 60.436-65.709 60.436zm.002-105.015c19.681 0 36.003 14.627 38.686 33.579h-77.371c2.683-18.953 19.004-33.579 38.685-33.579zm-215.748-61.08h52.458l6.904 31.862h-66.267l6.905-31.862zm-76.454 213.298 33.999-58.891a792.677 792.677 0 0 1 46.074-9.701l-10.395 68.592h-69.678zm91.494-70.551a801.237 801.237 0 0 1 21.878-3.302l11.191 73.854H184.96l10.692-70.552zm44.195 70.551-11.404-75.258a796.32 796.32 0 0 1 35.593-3.548l45.5 78.806h-69.689zm-94.145-71.96 10.531-18.241a824.47 824.47 0 0 1 93.124-14.03l8.586 14.87a809.578 809.578 0 0 0-112.241 17.401zm17.884-30.978 38.968-67.498h8.577l32.181 55.736c-26.722 2.639-53.452 6.57-79.726 11.762zm-94.489 52.439c-3.954 1.321-8.291-.791-9.672-4.708l-.021-.056a6.268 6.268 0 0 0-.074-.219 7.614 7.614 0 0 1 .353-5.902 7.558 7.558 0 0 1 4.428-3.879 824.285 824.285 0 0 1 39.805-12.186l-11.246 19.48a805.917 805.917 0 0 0-23.573 7.47zM170.3 104.854h19.551L91.456 275.291H71.904L170.3 104.854zM11 332.314l8.897-6.708v25.887H11v-19.179zm90.313 78.988c-29.944 0-54.307-24.362-54.307-54.307s24.362-54.307 54.307-54.307c29.945 0 54.308 24.362 54.308 54.307s-24.362 54.307-54.308 54.307zm211.062 0c-29.944 0-54.307-24.362-54.307-54.307s24.362-54.307 54.307-54.307c29.945 0 54.308 24.362 54.308 54.307s-24.363 54.307-54.308 54.307zm90.312-78.988v19.179h-8.897v-25.887l8.897 6.708zm-19.898 19.179h-5.355c-2.805-33.443-30.903-59.805-65.059-59.805-34.155 0-62.252 26.362-65.058 59.805h-80.945c-2.805-33.443-30.903-59.805-65.059-59.805-34.155 0-62.252 26.362-65.058 59.805h-5.358v-65.202h351.892v65.202zm-60.552-76.202-98.406-170.437h19.551l98.396 170.437h-19.541zm-20.761-91.812-8.833-15.3a830.08 830.08 0 0 1 26.99-.635 76.482 76.482 0 0 0 2.718 15.576c-6.88.026-13.867.152-20.875.359z"/><path d="M189.67 72.427c-1.439 0-2.859.58-3.89 1.61a5.54 5.54 0 0 0-1.61 3.89c0 1.45.59 2.87 1.61 3.89a5.58 5.58 0 0 0 3.89 1.61c1.45 0 2.87-.59 3.891-1.61a5.506 5.506 0 0 0 0-7.78 5.502 5.502 0 0 0-3.891-1.61zM224.01 72.427c-1.449 0-2.869.58-3.89 1.61a5.545 5.545 0 0 0-1.61 3.89c0 1.44.591 2.86 1.61 3.89a5.547 5.547 0 0 0 3.89 1.61c1.45 0 2.86-.59 3.891-1.61a5.58 5.58 0 0 0 1.609-3.89c0-1.45-.59-2.87-1.609-3.89a5.52 5.52 0 0 0-3.891-1.61zM189.67 331.076c-1.439 0-2.859.58-3.89 1.61a5.54 5.54 0 0 0-1.61 3.89c0 1.44.59 2.86 1.61 3.89a5.58 5.58 0 0 0 3.89 1.61c1.45 0 2.87-.59 3.891-1.61a5.54 5.54 0 0 0 1.609-3.89c0-1.45-.58-2.87-1.609-3.89a5.507 5.507 0 0 0-3.891-1.61zM224.01 331.076c-1.449 0-2.869.58-3.89 1.61a5.545 5.545 0 0 0-1.61 3.89 5.514 5.514 0 0 0 5.5 5.5c1.45 0 2.86-.59 3.891-1.62a5.538 5.538 0 0 0 1.609-3.88c0-1.45-.59-2.87-1.609-3.89a5.524 5.524 0 0 0-3.891-1.61z"/></svg>